<svg id="Layer_1" data-name="Layer 1" xmlns="http://www.w3.org/2000/svg" xmlns:xlink="http://www.w3.org/1999/xlink" viewBox="0 0 1000 90">
  <defs>
    <style>
      .cls-1, .cls-3, .cls-5 {
        fill: none;
      }

      .cls-2 {
        fill: url(#linear-gradient);
      }

      .cls-3, .cls-8 {
        stroke: #fff;
        stroke-linejoin: round;
      }

      .cls-3 {
        stroke-width: 1.97px;
      }

      .cls-4, .cls-8 {
        fill: #fff;
      }

      .cls-5 {
        stroke: #636569;
        stroke-miterlimit: 10;
        stroke-width: 1.17px;
      }

      .cls-6 {
        fill: #636569;
      }

      .cls-7 {
        clip-path: url(#clip-path);
      }

      .cls-8 {
        stroke-linecap: round;
        stroke-width: 0.99px;
      }
    </style>
    <linearGradient id="linear-gradient" x1="46.21" y1="75.69" x2="46.21" y2="2.18" gradientTransform="matrix(1, 0, 0, -1, 0, 85)" gradientUnits="userSpaceOnUse">
      <stop offset="0" stop-color="#00c4b3"/>
      <stop offset="0.36" stop-color="#00abb8"/>
      <stop offset="0.74" stop-color="#0097bc"/>
      <stop offset="1" stop-color="#008fbe"/>
    </linearGradient>
    <clipPath id="clip-path">
      <rect class="cls-1" x="28.79" y="9.38" width="54.17" height="73.44"/>
    </clipPath>
  </defs>
  <rect class="cls-2" x="9.45" y="9.31" width="73.51" height="73.51"/>
  <path class="cls-3" d="M36.13,23.17C36.13,25,36,49.74,36,49.74a8.13,8.13,0,0,1-1.8,5.56,7.55,7.55,0,0,1-6,2.59,7.62,7.62,0,0,1-6-2.59,8.17,8.17,0,0,1-1.79-5.56V9.19"/>
  <path class="cls-3" d="M13.21,9.19V49.12c0,3.54.56,7.14,2.8,10,2.7,3.54,7.42,5.36,12.25,5.36s9.54-1.85,12.24-5.39a13.36,13.36,0,0,0,2.59-6.53h9V82.82"/>
  <circle class="cls-4" cx="70.64" cy="67.27" r="2.63"/>
  <circle class="cls-4" cx="65.39" cy="72.85" r="2.63"/>
  <circle class="cls-4" cx="36.13" cy="23.17" r="2.03"/>
  <circle class="cls-4" cx="43.31" cy="23.17" r="2.03"/>
  <path class="cls-5" d="M61.47,39.33V33.1a5.2,5.2,0,0,1,5.19-5.21H83"/>
  <path class="cls-5" d="M83,21.6H60.66A7.43,7.43,0,0,0,53.23,29h0V40.54"/>
  <line class="cls-5" x1="82.96" y1="15.03" x2="28.41" y2="15.03"/>
  <circle class="cls-6" cx="28.79" cy="15.03" r="1.66"/>
  <circle class="cls-6" cx="53.23" cy="40.54" r="1.66"/>
  <circle class="cls-6" cx="61.47" cy="40.54" r="1.66"/>
  <line class="cls-5" x1="45.02" y1="82.82" x2="45.02" y2="64.37"/>
  <circle class="cls-6" cx="45.02" cy="64.37" r="1.66"/>
  <line class="cls-5" x1="9.45" y1="69.9" x2="34.75" y2="69.9"/>
  <line class="cls-5" x1="9.45" y1="77.5" x2="34.75" y2="77.5"/>
  <circle class="cls-6" cx="34.75" cy="69.9" r="1.66"/>
  <circle class="cls-6" cx="34.75" cy="77.5" r="1.66"/>
  <g class="cls-7">
    <g>
      <path class="cls-8" d="M83,39.54a15.31,15.31,0,0,0-3.69-.42c-5.6,0-9.68,2.57-11.21,7.07a.54.54,0,0,1-.52.37H43.31a.55.55,0,0,1-.55-.53V23.48a.55.55,0,0,1,.55-.55.54.54,0,0,1,.55.55v22H67.15C68.93,40.74,73.32,38,79.27,38a16.35,16.35,0,0,1,3.69.39Z"/>
      <g>
        <path class="cls-8" d="M83,55.73c-.74-.28-1.53-.56-2.33-.84-2.51-.89-3.88-1.38-4.93-2.36a3.92,3.92,0,0,1-1.4-3.05c0-2.39,1.57-5.17,6-5.17a8.12,8.12,0,0,1,2.68.42v1.21a7,7,0,0,0-2.68-.5c-3.58,0-4.86,2.09-4.86,4a2.79,2.79,0,0,0,1,2.23c.86.8,2,1.23,4.54,2.14l2,.7Z"/>
        <path class="cls-8" d="M83,79.48a17.62,17.62,0,0,1-4.52.58,16.92,16.92,0,0,1-14-7.68.56.56,0,0,1,.07-.73V71.6a.57.57,0,0,1,.81-.06.58.58,0,0,1,.19.4,15.5,15.5,0,0,0,13,7A16.31,16.31,0,0,0,83,78.33Z"/>
      </g>
      <g>
        <path class="cls-8" d="M83,63.25a24.29,24.29,0,0,0-5-2l-.32-.1a21.82,21.82,0,0,1-7.21-3.53,9.48,9.48,0,0,1-3.06-4.42H60.2V83.54a.59.59,0,0,1-1.17.15V52.62a.58.58,0,0,1,.58-.59H67.8a.59.59,0,0,1,.57.44,8.25,8.25,0,0,0,2.79,4.25A20.55,20.55,0,0,0,78,60l.31.1A29.15,29.15,0,0,1,83,61.91Z"/>
        <path class="cls-8" d="M83,72.37a9,9,0,0,1-3.51.69,10.56,10.56,0,0,1-9.29-5.44.59.59,0,0,1,.87-.81.55.55,0,0,1,.13.25,9.43,9.43,0,0,0,8.26,4.83A7.26,7.26,0,0,0,83,71.07Z"/>
      </g>
    </g>
  </g>
  <circle class="cls-4" cx="43.31" cy="23.17" r="2.63"/>
  <circle class="cls-4" cx="36.13" cy="23.17" r="2.63"/>
  <g>
    <g>
      <path class="cls-6" d="M95,34.62h6.09V51.36c0,3.93,2.15,6.64,6.55,6.64s6.46-2.71,6.46-6.64V34.62h6.09V51.53c0,7-4,11.79-12.55,11.79S95,58.5,95,51.57Z"/>
      <path class="cls-6" d="M153.68,62.82,140.24,43.88V62.82h-6V34.62h6.17l13.07,18.26V34.62h6v28.2Z"/>
      <path class="cls-6" d="M173.5,62.82V34.62h6v28.2Z"/>
      <path class="cls-6" d="M193.54,62.82V34.62h20v5.16h-14v6.13h13.65v5.16H199.54V62.82Z"/>
      <path class="cls-6" d="M226.12,62.82V34.62h6v28.2Z"/>
      <path class="cls-6" d="M246.16,62.82V34.62h20v5.16h-14v6.13h13.65v5.16H252.16v6.55h14v5.2Z"/>
      <path class="cls-6" d="M279.25,62.82V34.62h11.12c8.83,0,15,5.63,15,14.12s-6.13,14.08-15,14.08Zm6-5.29h5.11a8.43,8.43,0,0,0,8.83-8.79c0-5-3-8.83-8.83-8.83h-5.11Z"/>
      <path class="cls-6" d="M343.84,62.82V39.91H335.6V34.62h22.48v5.29h-8.2V62.82Z"/>
      <path class="cls-6" d="M370.38,62.82V34.62h19.95v5.16H376.39v6.13H390v5.16H376.39v6.55h13.94v5.2Z"/>
      <path class="cls-6" d="M402.13,48.74c0-8.66,6.55-14.58,14.79-14.58a13,13,0,0,1,12,6.89l-5.15,2.53a7.74,7.74,0,0,0-6.85-4.1c-4.9,0-8.62,3.94-8.62,9.26S412,58,416.92,58a7.66,7.66,0,0,0,6.85-4.1l5.15,2.49a13.06,13.06,0,0,1-12,6.93C408.68,63.32,402.13,57.41,402.13,48.74Z"/>
      <path class="cls-6" d="M460.29,62.82V51H447V62.82h-6V34.62h6V45.7h13.32V34.62h6v28.2Z"/>
      <path class="cls-6" d="M499.77,62.82,486.32,43.88V62.82h-6V34.62h6.17l13.06,18.26V34.62h6v28.2Z"/>
      <path class="cls-6" d="M519.59,62.82V34.62h6v28.2Z"/>
      <path class="cls-6" d="M538.27,48.74c0-8.66,6.55-14.58,14.79-14.58a13,13,0,0,1,12,6.89l-5.16,2.53a7.72,7.72,0,0,0-6.85-4.1c-4.9,0-8.62,3.94-8.62,9.26S548.16,58,553.06,58a7.65,7.65,0,0,0,6.85-4.1l5.16,2.49a13.09,13.09,0,0,1-12,6.93C544.82,63.32,538.27,57.41,538.27,48.74Z"/>
      <path class="cls-6" d="M596.85,62.82,595.08,58h-12.6l-1.77,4.86h-6.59L585,34.62h7.52l10.87,28.2Zm-8.07-23-4.69,12.94h9.34Z"/>
      <path class="cls-6" d="M614.48,62.82V34.62h6V57.53H632.4v5.29Z"/>
      <path class="cls-6" d="M665.67,54.28a12.35,12.35,0,0,0,9,3.8c3.29,0,4.9-1.56,4.9-3.17,0-2.11-2.45-2.83-5.71-3.59-4.6-1.06-10.52-2.32-10.52-8.62,0-4.69,4.06-8.5,10.69-8.5a15.68,15.68,0,0,1,11,3.93l-3.34,4.4a12,12,0,0,0-8.07-3.09c-2.7,0-4.14,1.19-4.14,2.88,0,1.9,2.37,2.49,5.62,3.25,4.65,1.06,10.57,2.45,10.57,8.71,0,5.15-3.68,9-11.29,9-5.41,0-9.3-1.81-12-4.48Z"/>
      <path class="cls-6" d="M711.48,34.16c8.54,0,14.76,6.09,14.76,14.58S720,63.32,711.48,63.32s-14.7-6.08-14.7-14.58S703,34.16,711.48,34.16Zm0,5.32c-5.19,0-8.53,4-8.53,9.26S706.29,58,711.48,58s8.59-4,8.59-9.26S716.68,39.48,711.48,39.48Z"/>
      <path class="cls-6" d="M738.92,62.82V34.62h6V57.53h11.92v5.29Z"/>
      <path class="cls-6" d="M769.48,34.62h6.08V51.36c0,3.93,2.16,6.64,6.56,6.64s6.46-2.71,6.46-6.64V34.62h6.09V51.53c0,7-4,11.79-12.55,11.79s-12.64-4.82-12.64-11.75Z"/>
      <path class="cls-6" d="M815.21,62.82V39.91H807V34.62h22.49v5.29h-8.2V62.82Z"/>
      <path class="cls-6" d="M841.76,62.82V34.62h6v28.2Z"/>
      <path class="cls-6" d="M875.15,34.16c8.53,0,14.75,6.09,14.75,14.58s-6.22,14.58-14.75,14.58-14.71-6.08-14.71-14.58S866.65,34.16,875.15,34.16Zm0,5.32c-5.2,0-8.54,4-8.54,9.26S870,58,875.15,58s8.58-4,8.58-9.26S880.35,39.48,875.15,39.48Z"/>
      <path class="cls-6" d="M922,62.82,908.58,43.88V62.82h-6V34.62h6.17l13.06,18.26V34.62h6v28.2Z"/>
      <path class="cls-6" d="M943.2,54.28a12.36,12.36,0,0,0,9,3.8c3.3,0,4.9-1.56,4.9-3.17,0-2.11-2.45-2.83-5.7-3.59-4.61-1.06-10.53-2.32-10.53-8.62,0-4.69,4.06-8.5,10.69-8.5a15.64,15.64,0,0,1,11,3.93l-3.33,4.4a12,12,0,0,0-8.08-3.09c-2.7,0-4.14,1.19-4.14,2.88,0,1.9,2.37,2.49,5.62,3.25,4.65,1.06,10.57,2.45,10.57,8.71,0,5.15-3.68,9-11.29,9-5.41,0-9.3-1.81-12-4.48Z"/>
    </g>
    <g>
      <path class="cls-6" d="M969.32,62.6V50.88h1.46V61.3h5.45v1.3Z"/>
      <path class="cls-6" d="M978.58,60.82V55.27h-1.41V54.11h1.41V51.79h1.31v2.32h1.72v1.16h-1.72v5.27c0,.63.28,1.09.86,1.09a1.3,1.3,0,0,0,.9-.35l.39,1a2.15,2.15,0,0,1-1.58.55A1.74,1.74,0,0,1,978.58,60.82Z"/>
      <path class="cls-6" d="M989.71,62.6V61.33a3.57,3.57,0,0,1-2.86,1.48c-2.22,0-3.78-1.69-3.78-4.45s1.55-4.46,3.78-4.46a3.55,3.55,0,0,1,2.86,1.49V50.88H991V62.6Zm0-6.15a3.18,3.18,0,0,0-2.55-1.37c-1.7,0-2.72,1.4-2.72,3.28s1,3.27,2.72,3.27a3.16,3.16,0,0,0,2.55-1.34Z"/>
    </g>
  </g>
</svg>
