<svg id="Layer_1" data-name="Layer 1" xmlns="http://www.w3.org/2000/svg" xmlns:xlink="http://www.w3.org/1999/xlink" viewBox="0 0 160 160">
  <defs>
    <style>
      .cls-1, .cls-3, .cls-5 {
        fill: none;
      }

      .cls-2 {
        fill: url(#linear-gradient);
      }

      .cls-3, .cls-8 {
        stroke: #fff;
        stroke-linejoin: round;
      }

      .cls-3 {
        stroke-width: 4.29px;
      }

      .cls-4, .cls-8 {
        fill: #fff;
      }

      .cls-5 {
        stroke: #636569;
        stroke-miterlimit: 10;
        stroke-width: 2.54px;
      }

      .cls-6 {
        fill: #636569;
      }

      .cls-7 {
        clip-path: url(#clip-path);
      }

      .cls-8 {
        stroke-linecap: round;
        stroke-width: 2.14px;
      }
    </style>
    <linearGradient id="linear-gradient" x1="80" y1="0.24" x2="80" y2="160" gradientUnits="userSpaceOnUse">
      <stop offset="0" stop-color="#00c4b3"/>
      <stop offset="0.36" stop-color="#00abb8"/>
      <stop offset="0.74" stop-color="#0097bc"/>
      <stop offset="1" stop-color="#008fbe"/>
    </linearGradient>
    <clipPath id="clip-path">
      <rect class="cls-1" x="42.15" y="0.4" width="117.73" height="159.6"/>
    </clipPath>
  </defs>
  <rect class="cls-2" x="0.12" y="0.24" width="159.76" height="159.76"/>
  <path class="cls-3" d="M58.1,30.37c0,4-.27,57.75-.27,57.75,0,6.22-2.07,10-3.91,12.08-2.31,2.81-6.58,5.62-12.93,5.62S30.37,103,28.05,100.2c-1.83-2.07-3.9-5.86-3.9-12.08V0"/>
  <path class="cls-3" d="M8.28,0V86.78c0,7.68,1.22,15.5,6.1,21.72,5.86,7.69,16.11,11.72,26.61,11.72s20.75-4,26.61-11.72a29,29,0,0,0,5.62-14.2H92.84V160"/>
  <circle class="cls-4" cx="133.09" cy="126.21" r="5.71"/>
  <circle class="cls-4" cx="121.68" cy="138.33" r="5.71"/>
  <circle class="cls-4" cx="58.1" cy="30.37" r="4.41"/>
  <circle class="cls-4" cx="73.7" cy="30.37" r="4.41"/>
  <path class="cls-5" d="M113.16,65.48V52a11.31,11.31,0,0,1,11.31-11.31h35.41"/>
  <path class="cls-5" d="M159.88,27H111.41A16.15,16.15,0,0,0,95.26,43.11v25"/>
  <line class="cls-5" x1="159.88" y1="12.68" x2="41.31" y2="12.68"/>
  <circle class="cls-6" cx="42.15" cy="12.68" r="3.6"/>
  <circle class="cls-6" cx="95.26" cy="68.12" r="3.6"/>
  <circle class="cls-6" cx="113.16" cy="68.12" r="3.6"/>
  <line class="cls-5" x1="77.42" y1="160" x2="77.42" y2="119.9"/>
  <circle class="cls-6" cx="77.42" cy="119.9" r="3.6"/>
  <line class="cls-5" x1="0.12" y1="131.92" x2="55.09" y2="131.92"/>
  <line class="cls-5" x1="0.12" y1="148.45" x2="55.09" y2="148.45"/>
  <circle class="cls-6" cx="55.09" cy="131.92" r="3.6"/>
  <circle class="cls-6" cx="55.09" cy="148.45" r="3.6"/>
  <g class="cls-7">
    <path class="cls-8" d="M159.88,65.94a34.33,34.33,0,0,0-8-.91c-12.15,0-21,5.6-24.34,15.37a1.22,1.22,0,0,1-1.14.81H73.7A1.2,1.2,0,0,1,72.5,80V31a1.2,1.2,0,1,1,2.4,0V78.81h50.61c3.88-10.31,13.42-16.19,26.33-16.19a37.46,37.46,0,0,1,8,.84Z"/>
    <g>
      <path class="cls-8" d="M159.88,101.14c-1.63-.62-3.33-1.22-5.08-1.83-5.44-1.94-8.43-3-10.7-5.14A8.45,8.45,0,0,1,141,87.5c0-5.18,3.41-11.23,13-11.23a18.26,18.26,0,0,1,5.83.91v2.63a15.58,15.58,0,0,0-5.83-1.08c-7.8,0-10.57,4.53-10.57,8.77a6,6,0,0,0,2.27,4.85c1.85,1.74,4.36,2.68,9.86,4.64,1.47.51,2.89,1,4.27,1.52Z"/>
      <path class="cls-8" d="M159.88,152.76a37.11,37.11,0,0,1-9.81,1.27c-16.58,0-26.24-10.46-30.52-16.7a1.23,1.23,0,0,1,.16-1.58l.11-.11a1.23,1.23,0,0,1,1.74.06,1.2,1.2,0,0,1,.32.67c5,7,13.81,15.2,28.19,15.2a35.14,35.14,0,0,0,9.81-1.33Z"/>
    </g>
    <g>
      <path class="cls-8" d="M159.88,117.46c-3-1.8-7-3.07-10.91-4.32l-.68-.21c-5.4-1.73-11-3.86-15.66-7.68a20,20,0,0,1-6.65-9.6H110.41v65.92a1.28,1.28,0,1,1-2.55,0V94.37a1.27,1.27,0,0,1,1.27-1.27h17.8a1.28,1.28,0,0,1,1.23.94,17.62,17.62,0,0,0,6.07,9.24c4.31,3.55,9.68,5.57,14.83,7.22l.69.22a66.67,66.67,0,0,1,10.13,3.83Z"/>
      <path class="cls-8" d="M159.88,137.29a18.88,18.88,0,0,1-7.63,1.5A23,23,0,0,1,132.05,127a1.28,1.28,0,1,1,2.24-1.22,20.42,20.42,0,0,0,18,10.49,15.76,15.76,0,0,0,7.63-1.77Z"/>
    </g>
  </g>
  <circle class="cls-4" cx="73.7" cy="30.37" r="5.71"/>
  <circle class="cls-4" cx="58.1" cy="30.37" r="5.71"/>
</svg>
