<svg id="Layer_1" data-name="Layer 1" xmlns="http://www.w3.org/2000/svg" xmlns:xlink="http://www.w3.org/1999/xlink" viewBox="0 0 160 160">
  <defs>
    <style>
      .cls-1, .cls-3, .cls-5 {
        fill: none;
      }

      .cls-2 {
        fill: #00c4b3;
      }

      .cls-3, .cls-8 {
        stroke: #fff;
        stroke-linejoin: round;
      }

      .cls-3 {
        stroke-width: 5.25px;
      }

      .cls-4, .cls-8 {
        fill: #fff;
      }

      .cls-5 {
        stroke: #636569;
        stroke-miterlimit: 10;
        stroke-width: 2.54px;
      }

      .cls-6 {
        fill: #636569;
      }

      .cls-7 {
        clip-path: url(#clip-path);
      }

      .cls-8 {
        stroke-linecap: round;
        stroke-width: 3.5px;
      }
    </style>
    <clipPath id="clip-path">
      <rect class="cls-1" x="42.64" y="0.8" width="117.44" height="159.2"/>
    </clipPath>
  </defs>
  <g>
    <rect class="cls-2" x="0.72" y="0.64" width="159.36" height="159.36"/>
    <path class="cls-3" d="M58.55,30.69c0,4-.27,57.61-.27,57.61,0,6.21-2.07,10-3.9,12-2.31,2.8-6.57,5.6-12.9,5.6s-10.59-2.8-12.91-5.6c-1.82-2.07-3.89-5.84-3.89-12V.4"/>
    <path class="cls-3" d="M8.85.4V87c0,7.67,1.22,15.46,6.09,21.67,5.84,7.67,16.07,11.69,26.54,11.69s20.7-4,26.54-11.69a28.89,28.89,0,0,0,5.61-14.16H93.2V160"/>
    <circle class="cls-4" cx="133.35" cy="126.3" r="5.69"/>
    <circle class="cls-4" cx="121.97" cy="138.38" r="5.69"/>
    <circle class="cls-4" cx="58.55" cy="30.69" r="4.4"/>
    <circle class="cls-4" cx="74.11" cy="30.69" r="4.4"/>
    <path class="cls-5" d="M113.47,65.72V52.22a11.29,11.29,0,0,1,11.28-11.29h35.32"/>
    <path class="cls-5" d="M160.07,27.29H111.73A16.11,16.11,0,0,0,95.62,43.4V68.35"/>
    <line class="cls-5" x1="160.07" y1="13.05" x2="41.8" y2="13.05"/>
    <circle class="cls-6" cx="42.64" cy="13.05" r="3.59"/>
    <circle class="cls-6" cx="95.62" cy="68.35" r="3.59"/>
    <circle class="cls-6" cx="113.47" cy="68.35" r="3.59"/>
    <line class="cls-5" x1="77.82" y1="160" x2="77.82" y2="120"/>
    <circle class="cls-6" cx="77.82" cy="120" r="3.59"/>
    <line class="cls-5" x1="0.72" y1="131.99" x2="55.55" y2="131.99"/>
    <line class="cls-5" x1="0.72" y1="148.48" x2="55.55" y2="148.48"/>
    <circle class="cls-6" cx="55.55" cy="131.99" r="3.59"/>
    <circle class="cls-6" cx="55.55" cy="148.48" r="3.59"/>
    <g class="cls-7">
      <path class="cls-8" d="M160.07,66.17a34.7,34.7,0,0,0-8-.91c-12.12,0-21,5.59-24.28,15.34a1.2,1.2,0,0,1-1.13.81H74.11a1.2,1.2,0,0,1-1.2-1.2V31.29a1.2,1.2,0,0,1,2.4,0V79h50.48c3.87-10.28,13.39-16.15,26.26-16.15a37.21,37.21,0,0,1,8,.84Z"/>
      <g>
        <path class="cls-8" d="M160.07,101.29c-1.62-.62-3.31-1.22-5.06-1.83-5.43-1.93-8.41-3-10.68-5.12a8.45,8.45,0,0,1-3.07-6.66c0-5.17,3.4-11.2,13-11.2a18.09,18.09,0,0,1,5.81.91V80a15.47,15.47,0,0,0-5.81-1.08c-7.78,0-10.55,4.52-10.55,8.75A6,6,0,0,0,146,92.52c1.85,1.73,4.35,2.67,9.84,4.63,1.46.5,2.88,1,4.26,1.52Z"/>
        <path class="cls-8" d="M160.08,152.78a37,37,0,0,1-9.79,1.27c-16.54,0-26.17-10.44-30.44-16.66a1.23,1.23,0,0,1,.15-1.58l.12-.1a1.22,1.22,0,0,1,1.73,0,1.2,1.2,0,0,1,.32.67c5,7,13.78,15.16,28.12,15.16a34.93,34.93,0,0,0,9.78-1.33Z"/>
      </g>
      <g>
        <path class="cls-8" d="M160.08,117.57c-3-1.8-7-3.07-10.89-4.31l-.68-.22c-5.39-1.72-11-3.85-15.62-7.65a20.05,20.05,0,0,1-6.63-9.58H110.72v65.76a1.27,1.27,0,0,1-2.54,0v-67a1.27,1.27,0,0,1,1.27-1.27H127.2a1.27,1.27,0,0,1,1.23.93,17.57,17.57,0,0,0,6.06,9.22c4.3,3.54,9.65,5.55,14.8,7.2l.67.22a65.63,65.63,0,0,1,10.11,3.83Z"/>
        <path class="cls-8" d="M160.07,137.35a19,19,0,0,1-7.61,1.49,22.92,22.92,0,0,1-20.15-11.79,1.27,1.27,0,1,1,2.23-1.22,20.36,20.36,0,0,0,17.92,10.47,15.79,15.79,0,0,0,7.61-1.76Z"/>
      </g>
    </g>
    <circle class="cls-4" cx="74.11" cy="30.69" r="5.69"/>
    <circle class="cls-4" cx="58.55" cy="30.69" r="5.69"/>
  </g>
</svg>
